# xmcd
#
# Track frame offsets: 
#        150
#        11014
#        21709
#        30714
#        39825
#        49443
#        59211
#        71340
#        74719
#        86174
#        97801
#        109233
#        119260
#        130720
#        142109
#        150319
#        162533
#        177043
#        190082
#        201788
#        213885
#        247420
#        261519
#        275173
#        290246
#
# Disc length: 4072 seconds
#
# Revision: 0
# Processed by: cddbd v1.5.2PL0 Copyright (c) Steve Scherf et al.
# Submitted via: ExactAudioCopy v0.95b4
#
DISCID=8f0fe619
DTITLE=The Beatles  - John Barrett's Cassette Dubs, Vol. 3
DYEAR=1900
DGENRE=
TTITLE0=Beatles - She Loves You (RS2)
TTITLE1=Beatles - She Loves You (US Stereo Mix)
TTITLE2=Beatles - From Me To You (Alt Mix - Vocal Intro - Stereo Mix)
TTITLE3=Beatles - From Me To You (Alt Mix - harmonica Intro, Stereo)
TTITLE4=Beatles - Thank You Girl (Alt Mix - Take 14 with edit from Take
TTITLE4=30 w-o harmonica)
TTITLE5=Beatles - Thank You Girl (Alt Mix - Take 30 with harmonica)
TTITLE6=Beatles - That Means A Lot (RS1)
TTITLE7=Beatles - That Means A Lot (Unidentified - studio chat and end of
TTITLE7=Take 2)
TTITLE8=Beatles - That Means A Lot (RM - Mono Mix - Drier sound)
TTITLE9=Beatles - That Means A Lot (Unidentified version)
TTITLE10=Beatles - This Boy (RS 15)
TTITLE11=Beatles - Norwegian Wood (This Bird Has Flown) (Take 1)
TTITLE12=Beatles - Norwegian Wood (This Bird Has Flown) (Take 2)
TTITLE13=Beatles - Norwegian Wood (This Bird Has Flown) (Take 4)
TTITLE14=Beatles - What You're Doing (Take 11)
TTITLE15=Beatles - Yes It Is (Unidentified)
TTITLE16=Beatles - I'm Looking Through You (Take 1)
TTITLE17=Beatles - I'm Looking Through You (Take 4 - RS?)
TTITLE18=Beatles - Mr Moonlight (Take 4)
TTITLE19=Beatles - Mr Moonlight (Take 4, mixed by Barrett)
TTITLE20=Beatles - Medley - 12-Bar Original (Takes 1 and 2)
TTITLE21=Beatles - Penny Lane (Take 9 - RM8)
TTITLE22=Beatles - Penny Lane (Take 9, RM10)
TTITLE23=Beatles - Strawberry Fields Forever (Take 7 - RM3)
TTITLE24=Beatles - Strawberry Fields Forever (Take 26 - RM9)
EXTD=
EXTT0=
EXTT1=
EXTT2=
EXTT3=
EXTT4=
EXTT5=
EXTT6=
EXTT7=
EXTT8=
EXTT9=
EXTT10=
EXTT11=
EXTT12=
EXTT13=
EXTT14=
EXTT15=
EXTT16=
EXTT17=
EXTT18=
EXTT19=
EXTT20=
EXTT21=
EXTT22=
EXTT23=
EXTT24=
PLAYORDER=
